<?xml version="1.0" encoding="UTF-8"?>
<svg width="30" height="46" version="1.1" viewBox="0 0 52.917 71.438" xmlns="http://www.w3.org/2000/svg"><g transform="translate(0 -225.56)"><g transform="matrix(.27194 0 0 .26456 26.458 28.574)" fill-rule="evenodd" stroke="#000" stroke-linejoin="round" stroke-width="14.59"><g fill="none" stroke="#000" stroke-linejoin="round" stroke-width="14.59"><path d="m90 841.89c0-49.678-40.323-90-90-90s-90 40.322-90 90c0 49.677 40.323 90 90 90s90-40.323 90-90z" stroke-linecap="round"/><path d="m-10 931.33v50l10 25.997 10-25.997v-50"/></g></g></g><g transform="matrix(.5787 0 0 .5787 8.1754 4.8048)"><g data-name="Layer 12"><path d="m62.832 20.445-2-3a1 1 0 0 0-0.832-0.445h-1.465l-1.7-2.555a1 1 0 0 0-0.835-0.445h-1.465l-1.7-2.555a1 1 0 0 0-0.835-0.445h-2a1 1 0 0 0-0.832 0.445l-1.703 2.555h-1.465a1 1 0 0 0-0.707 0.293l-1.707 1.707h-4.586v-8a3 3 0 0 0-6 0v8h-2v-8a3 3 0 0 0-6 0v8h-4.586l-1.707-1.707a1 1 0 0 0-0.707-0.293h-1.465l-1.7-2.555a1 1 0 0 0-0.835-0.445h-2a1 1 0 0 0-0.832 0.445l-1.703 2.555h-1.465a1 1 0 0 0-0.832 0.445l-1.703 2.555h-1.465a1 1 0 0 0-0.832 0.445l-2 3a1.006 1.006 0 0 0-0.168 0.555v6a1.006 1.006 0 0 0 0.168 0.555l3.808 5.711-1.976 24.654a1 1 0 0 0 1 1.08h15a1 1 0 0 0 1-1.08l-1.976-24.654 3.808-5.711a1 1 0 0 0 0.148-0.359l0.24-1.2h2.78v8a3 3 0 0 0 6 0v-7.996h2v8a3 3 0 0 0 6 0v-8h2.78l0.24 1.2a1 1 0 0 0 0.148 0.359l3.808 5.711-1.976 24.65a1 1 0 0 0 1 1.08h15a1 1 0 0 0 1-1.08l-1.976-24.654 3.808-5.711a1.006 1.006 0 0 0 0.168-0.555v-6a1.006 1.006 0 0 0-0.168-0.555zm-42.774 6.165-3.89 5.835a1 1 0 0 0-0.168 0.635l1.917 23.92h-12.834l1.917-23.92a1 1 0 0 0-0.165-0.635l-3.835-5.745v-5.4l1.535-2.3h1.465a1 1 0 0 0 0.832-0.445l1.703-2.555h1.465a1 1 0 0 0 0.832-0.445l1.703-2.555h0.93l1.7 2.555a1 1 0 0 0 0.835 0.445h1.586l1.27 1.271-1.805 5.413 1.9 0.632 0.586-1.757 1.353 0.9zm2.562-2.61 0.36-1.8a1 1 0 0 0-0.425-1.028l-2.365-1.58 0.531-1.592h4.279v6zm6.38 10a1 1 0 0 1-2 0v-26a1 1 0 0 1 2 0zm2-10v-6h2v6zm6 10a1 1 0 0 1-2 0v-26a1 1 0 0 1 2 0zm4.445-12.832a1 1 0 0 0-0.425 1.032l0.36 1.8h-2.38v-6h4.279l0.531 1.592zm19.555 5.532-3.832 5.748a1 1 0 0 0-0.168 0.632l1.917 23.92h-12.834l1.917-23.92a1 1 0 0 0-0.165-0.635l-3.89-5.835-0.83-4.149 1.353-0.9 0.586 1.757 1.9-0.632-1.8-5.413 1.26-1.273h1.586a1 1 0 0 0 0.832-0.445l1.703-2.555h0.93l1.7 2.555a1 1 0 0 0 0.835 0.445h1.465l1.7 2.555a1 1 0 0 0 0.835 0.445h1.465l1.535 2.3z"/></g><g fill-opacity=".49804"><path transform="scale(.21333)" d="m131.17 33.159c-1.969 0.084-4.2354 1.2843-4.0077 3.5782-0.85529 14.355-0.36213 28.758-0.51402 43.132 0.11706 25.659-0.26249 51.325 0.27213 76.98 0.29188 2.2488-0.37427 5.7724 2.5439 6.4828 2.8102 1.3823 6.6636-0.98613 6.0196-4.2686 0.4608-27.726 0.14551-55.462 0.23694-83.192-0.124-13.232 0.2386-26.484-0.36517-39.703-0.21244-1.8966-2.4356-3.0674-4.1857-3.0082z" fill="#ff0"/><path transform="scale(.21333)" d="m168.34 33.139c-2.6034 0.08507-4.1082 2.6068-3.7228 5.0051-0.44852 30.865-0.14819 61.738-0.23633 92.607 0.16708 10.174-0.32486 20.395 0.60471 30.536 0.53596 2.7437 4.728 3.1534 6.5711 1.4249 2.3454-1.9174 0.99852-5.3616 1.4674-7.9674 0.45232-37.774 0.46174-75.557-0.0134-113.33-0.32186-2.7069 0.87233-6.6018-2.4369-7.8806-0.6951-0.31803-1.4718-0.45762-2.2339-0.3934z" fill="#ff0"/><g fill="#f00"><path transform="scale(.21333)" d="m182.88 98.434v14.057c3.5197-0.21035 7.2415 0.43583 10.648-0.38993-0.14241-3.7768-2.4108-7.8213-0.76248-11.515 3.5512-3.6152 8.5401-5.7466 12.155-9.1095-0.67982-2.3894-1.5024-4.7351-2.2631-7.0994h-19.777v14.057z"/><path transform="scale(.21333)" d="m145.52 98.434v14.057h8.8968v-28.114h-8.8968z"/><path transform="scale(.21333)" d="m96.09 87.972c-0.18983 1.2487-1.2921 2.8438-0.70201 3.9931 3.9151 2.9243 8.317 5.2976 11.926 8.575 1.4384 3.6212-0.53493 7.5558-0.87439 11.237 0.0677 1.3347 2.8823 0.32791 3.9076 0.70386 2.2329 0.021 4.4661 5e-3 6.6991 0.01v-28.114h-19.777c-0.39294 1.1983-0.78588 2.3966-1.1788 3.5949z"/></g></g><path transform="scale(.21333)" d="m54.792 67.261c-1.9474 2.4437-3.2112 5.7156-5.8517 7.4608-2.8909 0.52327-5.8662 0.28537-8.7918 0.46083-3.1866 4.4822-5.8471 9.4428-9.6183 13.455-2.9665 1.2221-6.6245 0.15952-9.4505 1.0938-2.2267 3.568-4.9824 6.9753-6.88 10.643v24.579c6.2149 9.5473 12.924 18.843 18.685 28.645-2.5307 37.807-6.0374 75.549-8.7203 113.34h59.431c-1.318-20.925-3.2426-41.818-4.8335-62.728-1.2497-16.989-2.9378-33.959-3.6957-50.976 5.9065-9.9478 12.866-19.345 18.913-29.172 1.2471-6.2186 2.4946-12.437 3.7424-18.655-2.0014-0.99671-3.6842-3.0576-5.8566-3.5017-1.6951 2.075-1.3329 5.4884-3.2717 7.3816-2.9068-0.77723-6.0195-1.5998-8.648-2.9068 2.3408-8.6105 5.4499-16.995 8.1934-25.483-2.0916-1.8319-3.8957-4.3602-6.1596-5.7739-3.1745-0.26453-6.6913 0.59619-9.6558-0.72912-3.5242-4.0279-6.1466-8.7486-9.1908-13.134-1.8715 0.31101-4.6073-0.99855-5.3287 1.4662l-3.0114 4.5336z" fill="#fff" fill-opacity=".78431"/><path transform="scale(.21333)" d="m232.71 67.641c-1.889 2.3654-3.1585 5.5846-5.833 7.1376-2.9958 0.76065-6.3498-0.08255-9.2096 0.59843-1.8926 1.9024-3.7853 3.8048-5.6779 5.7072 2.6234 8.3614 5.6929 16.706 7.9772 25.101-2.7369 1.6387-5.9697 2.2552-8.9343 3.394-0.90276-2.7077-1.8054-5.4154-2.708-8.1232-1.9528 1.3965-4.1291 2.5522-5.8705 4.2072 1.2911 6.4652 2.4002 13.04 3.9808 19.402 6.1956 9.5096 12.875 18.772 18.623 28.534-2.5312 37.807-6.0095 75.551-8.7244 113.34h59.634c-2.924-37.706-6.2827-75.382-8.7543-113.12 1.112-3.0116 3.4202-5.6057 5.0416-8.4166 4.4437-6.7901 8.9829-13.517 13.474-20.276-0.01-8.4228-0.0194-16.846-0.0285-25.268-2.3303-3.4401-4.6606-6.8802-6.9909-10.32-3.1633-0.37897-6.6372 0.27572-9.5842-1.0899-3.5399-4.1296-6.2941-8.8607-9.3847-13.323-3.1077-0.33642-6.6923 0.7764-9.4779-0.96544-3.5205-3.9379-6.1104-8.599-9.1303-12.914-2.2081 0.0093-4.7538-0.61298-5.5321 2.0713-0.96308 1.4413-1.9262 2.8827-2.8892 4.324z" fill="#fff" fill-opacity=".78431"/></g><path transform="scale(.26459)" d="m98.282 15.117c-34.292 0.0968-67.205 23.264-78.405 55.733-7.5708 22.602-5.3056 48.672 7.7719 68.846 16.631 27.225 49.685 43.242 81.369 39.28 38.39-3.0638 72.705-36.144 75.139-74.938 2.3252-24.158-7.3038-48.783-24.93-65.37-16.122-15.569-38.592-24.022-60.945-23.552zm-5.7751 13.989c4.9393-0.75544 6.7146 4.4591 6.5033 8.4413 0.23885 5.0806 0.09066 10.169 0.13262 15.254 5.8311 1.7741 3.3543-4.7595 3.8434-8.3274 0.30558-3.9633-0.61597-8.435 0.4531-12.082 2.7571-4.3897 9.7039-4.4847 12.485-0.06047 1.2246 4.1284 0.1582 9.2063 0.51361 13.695-0.22478 4.0052-0.91444 8.4753 4.5666 6.7748 4.0626 0.96612 6.6757-2.1693 9.7099-4.0861 2.4861-0.34761 5.0742-0.84705 6.0666-3.612 1.3243-3.9221 6.469-3.979 9.5022-2.3971 2.1568 2.3774 3.7577 6.279 7.6018 5.8227 3.4064 1.8206 4.1535 7.8015 8.9655 6.9512 2.8819 1.6891 4.7579 5.3022 6.1142 8.141-0.44988 5.1214 0.91431 10.794-0.71223 15.558-3.1492 5.5302-9.192 10.787-7.3373 17.801 0.87606 16.374 3.1956 32.721 3.1689 49.111-1.6629 2.4366-5.8589 0.86629-8.3811 1.4655-9.3588-0.21126-18.891 0.70334-28.144-0.68602-0.943-6.9234 0.58063-14.278 0.79821-21.339 0.90482-11.448 1.8421-22.894 2.7624-34.341-3.3253-5.0827-7.0881-10.299-9.4546-15.741-3.1952-0.74805-6.6346-0.65237-5.2271 3.6157-0.53585 5.6595 1.1247 11.874-1.1085 17.205-2.9423 5.4588-12.834 3.0969-12.094-3.368-0.4021-5.8847-0.19717-11.788-0.24897-17.681-5.8306-1.7741-3.3556 4.7595-3.8456 8.3274-0.50486 5.0562 1.5489 12.996-4.488 15.376-4.5512 1.9545-9.9824-2.2503-9.3733-7.2214-0.39955-5.4838-0.16042-10.989-0.22895-16.482-2.5664-0.34122-5.7392-0.25625-6.1517 2.9344-2.5975 5.9989-9.3905 10.992-7.708 18.179 0.9115 16.521 3.1678 33.004 3.2665 49.546-1.1441 2.7026-5.4992 1.0289-7.7619 1.6678-9.5827-0.20222-19.339 0.71941-28.816-0.67812-0.943-6.9234 0.58063-14.278 0.79821-21.339 0.90482-11.448 1.8421-22.894 2.7625-34.341-2.8468-4.7612-6.6564-9.2334-8.9167-14.17 0.25843-4.657-0.4935-9.6142 0.34972-14.097 2.3594-2.967 3.7988-8.4233 8.562-7.6969 3.5755-1.5673 4.2195-7.4588 8.973-7.0012 3.4418-1.4813 3.8857-7.5969 8.6577-6.3131 4.3803-1.0062 5.9225 3.4504 8.2836 5.9615 2.7341 0.44563 5.5062 1.1469 7.1939 3.6945 2.9477 2.2835 7.0763 0.7908 10.507 1.2336 0.36968-6.7637-0.84833-13.875 1.0522-20.422 1.1724-2.3654 3.8459-3.4996 6.4044-3.2729z" fill="#f00" fill-opacity=".78431" style="paint-order:stroke fill markers"/><path transform="scale(.26459)" d="m97.221 214.68c0.48337 7.7837-1.0398 15.991 1.5013 23.485 0.62594 3.0465 2.5295 0.88767 2.8275-0.90956 1.5661-13.448 0.44598-27.102 0.79571-40.63-0.89738-4.0271-7.6406-1.1582-5.1246 3.5031v14.552z" fill="#f00" fill-opacity=".78431" style="paint-order:stroke fill markers"/></svg>
