<?xml version="1.0" encoding="UTF-8"?>
<svg width="30" height="46" enable-background="new 0 0 100 100" fill="#000000" version="1.1" viewBox="0 0 65.333 100" xml:space="preserve" xmlns="http://www.w3.org/2000/svg" xmlns:cc="http://creativecommons.org/ns#" xmlns:dc="http://purl.org/dc/elements/1.1/" xmlns:rdf="http://www.w3.org/1999/02/22-rdf-syntax-ns#"><metadata><rdf:RDF><cc:Work rdf:about=""><dc:format>image/svg+xml</dc:format><dc:type rdf:resource="http://purl.org/dc/dcmitype/StillImage"/><dc:title/></cc:Work></rdf:RDF></metadata><path d="m65.333 32.703c0-18.032-14.652-32.703-32.665-32.703s-32.668 14.671-32.668 32.703c0 13.333 8.0245 24.808 19.482 29.894 0.5704 5.9083 0.258 28.355 13.186 37.403 12.172-8.5307 13.123-33.293 13.184-37.403 11.458-5.0852 19.481-16.56 19.481-29.894zm-32.667 61.722c-6.7192-10.83-6.7143-15.037-7.0852-29.819 2.2843 0.50835 4.6501 0.79636 7.0852 0.79636s4.7991-0.28801 7.0834-0.79636c-0.36916 14.77-0.15862 18.984-7.0834 29.819zm0.0017-35.095c-14.668 0-26.602-11.945-26.602-26.628s11.933-26.63 26.602-26.63c14.666 0 26.599 11.945 26.599 26.63s-11.933 26.628-26.599 26.628z" fill="#000" stroke-width="1.7341"/><g transform="matrix(.26468 0 0 .26468 -5.9989 13.9)"><g transform="matrix(.58479 0 0 .58479 89.388 27.176)"><path d="m167.86 69.693c0-7.3208-5.9364-13.277-13.234-13.277-7.2981 0-13.236 5.9562-13.236 13.277 0 5.4133 3.2512 10.072 7.8933 12.136 0.0246 9.9381 4.0054 13.738 4.1751 14.255 0.16572 0.50502 0.6369 0.84669 1.167 0.84669s1.0014-0.34163 1.167-0.84669c0.16993-0.51772 4.1492-4.3165 4.1747-14.255 4.6423-2.0646 7.8929-6.7236 7.8929-12.136zm-13.235 23.707c-2.7064-4.7209-2.7203-4.7537-2.8706-10.755 0.92549 0.20639 1.884 0.32332 2.8706 0.32332s1.9444-0.11693 2.8699-0.32332c-0.14957 5.9963-0.12827 6.0174-2.8699 10.755zm7.3e-4 -12.897c-5.9428 0-10.778-4.8497-10.778-10.811 0-5.9611 4.8347-10.812 10.778-10.812 5.942 0 10.777 4.8497 10.777 10.812 0 5.9619-4.8347 10.811-10.777 10.811zm-105.56 2.4921c0-9.1216-7.3967-16.543-16.489-16.543-9.0933 0-16.492 7.4213-16.492 16.543 0 6.7449 4.0509 12.55 9.8349 15.121 0.03065 12.383 4.9907 17.117 5.2021 17.762 0.20648 0.62925 0.79357 1.055 1.4541 1.055s1.2477-0.42567 1.4541-1.055c0.21173-0.64507 5.1698-5.3783 5.2016-17.762 5.7842-2.5725 9.8344-8.3775 9.8344-15.121zm-16.491 29.539c-3.3721-5.8822-3.3895-5.923-3.5767-13.401 1.1531 0.25716 2.3474 0.40285 3.5767 0.40285s2.4227-0.14569 3.5759-0.40285c-0.18636 7.4713-0.15982 7.4976-3.5759 13.401zm9.09e-4 -16.069c-7.4046 0-13.429-6.0427-13.429-13.47 0-7.4274 6.024-13.472 13.429-13.472 7.4036 0 13.428 6.0427 13.428 13.472 0 7.4284-6.024 13.47-13.428 13.47zm96.362-24.634c0-12.519-10.151-22.704-22.63-22.704-12.48 0-22.634 10.185-22.634 22.704 0 9.2568 5.5596 17.223 13.498 20.753 0.04207 16.994 6.8493 23.492 7.1395 24.376 0.28339 0.86359 1.0891 1.4478 1.9956 1.4478s1.7124-0.58419 1.9956-1.4478c0.29058-0.88531 7.0952-7.3813 7.1388-24.376 7.9384-3.5305 13.497-11.497 13.497-20.753zm-22.632 40.539c-4.628-8.0728-4.6518-8.1289-4.9088-18.391 1.5826 0.35293 3.2217 0.55288 4.9088 0.55288s3.325-0.19995 4.9076-0.55288c-0.25577 10.254-0.21934 10.29-4.9076 18.391zm1e-3 -22.054c-10.162 0-18.431-8.2931-18.431-18.487 0-10.194 8.2674-18.489 18.431-18.489 10.161 0 18.429 8.2931 18.429 18.489 0 10.195-8.2674 18.487-18.429 18.487zm56.634-158.76c-25.846 0-46.873 21.027-46.873 46.873 0 6.6816 1.3788 13.137 4.0966 19.189 1.1161 2.4841 4.0345 3.5927 6.5192 2.4767 2.4841-1.1161 3.5933-4.0351 2.4772-6.5191-2.1438-4.7721-3.2308-9.8685-3.2308-15.147 0-20.408 16.603-37.01 37.01-37.01 20.408 0 37.01 16.603 37.01 37.01 0 14.515-8.5484 27.759-21.778 33.741-2.4812 1.1223-3.5842 4.0436-2.4618 6.5248 0.82366 1.8217 2.618 2.9008 4.4962 2.9008 0.67945 0 1.3697-0.14136 2.0292-0.43947 16.752-7.5748 27.577-24.347 27.577-42.728 0-25.846-21.027-46.872-46.873-46.872zm-165.2 206.17h-35.8l51.25-88.773 14.043 14.043c0.96274 0.96274 2.2247 1.4444 3.4867 1.4444s2.524-0.48108 3.4867-1.4444l9.6781-9.6781 23.346 4.5412 7.0715 12.25c0.91315 1.5818 2.5707 2.4658 4.2745 2.4658 0.83677 0 1.6849-0.21375 2.4619-0.66235 2.3587-1.3623 3.1658-4.3782 1.8041-6.7369l-18.937-32.804 10.82-18.741 18.5 16.344c0.93481 0.82651 2.1005 1.2352 3.2638 1.2352 1.266 0 2.528-0.4845 3.4879-1.4444l11.17-11.17 14.702 25.459c0.91371 1.5818 2.5707 2.4664 4.275 2.4664 0.8362 0 1.6849-0.21375 2.4619-0.66121 2.3587-1.3617 3.1664-4.3776 1.8046-6.7369l-5.6556-9.7938 17.765-30.769 30.65 53.091-5.6761 4.1941c-2.1905 1.6182-2.6545 4.7065-1.0357 6.8965 0.9673 1.3093 2.4584 2.0007 3.9701 2.0007 1.018 0 2.0446-0.31407 2.9264-0.96559l17.475-12.916 33.392 86.863h-36.886l-12.588-21.808c-1.3618-2.3592-4.3782-3.1675-6.7363-1.8063-2.3593 1.3617-3.167 4.3771-1.8064 6.7363l9.742 16.878h-162.46m0 9.8622h217.91c1.6245 0 3.1447-0.80028 4.0647-2.1387 0.91999-1.3389 1.1212-3.0444 0.53865-4.5606l-38.292-99.608c-0.55234-1.437-1.7442-2.5342-3.2228-2.9646-1.4792-0.43149-3.0729-0.14649-4.311 0.76837l-9.0249 6.6719-34.36-59.52c-0.88123-1.5259-2.5092-2.4658-4.271-2.4658-1.7619 0-3.3898 0.93994-4.271 2.4658l-19.19 33.237-27.269-47.223c-0.88123-1.5253-2.5092-2.4658-4.2705-2.4658-1.7619 0-3.3893 0.94051-4.2705 2.4658l-29.017 50.263-6.4279-11.134s-5.7e-4 -5.7e-4 -5.7e-4 -0.0011v-5.7e-4l-9.8753-17.095c-0.88123-1.5253-2.5092-2.4647-4.2705-2.4647s-3.3893 0.93994-4.2699 2.4658l-84.241 145.91c-0.88123 1.5259-0.88123 3.4058 0 4.9311s2.5086 2.4658 4.2705 2.4658h44.341m45.455-104.45c-1.6091-0.31293-3.269 0.1938-4.4284 1.3538l-8.0456 8.0456-12.426-12.426 19.344-33.505 5.6032 9.6986v5.7e-4l10.735 18.596c0.01368 0.02223 0.02565 0.04617 0.03933 0.0684l6.6799 11.572zm53.086-23.622-16.524-14.599 11.743-20.342 14.54 25.181z"/><g fill-opacity=".78431"><path transform="matrix(.57001 0 0 .57001 -51.525 -106.34)" d="m146.72 309.08c-12.603 0.14842-23.638 12.28-21.956 24.904 0.0842 10.409 9.2912 19.808 19.459 21.091 11.611 1.9098 23.529-6.5733 25.879-17.989 0.73419-6.6936 0.39781-13.995-4.3832-19.248-4.4697-5.7484-11.729-9.0779-18.999-8.758z" fill="#ff0" style="paint-order:stroke fill markers"/><path transform="matrix(.57001 0 0 .57001 -51.525 -106.34)" d="m141.79 366.3c0.4412 5.5167 1.5891 12.085 5.9098 15.751 5.2346-5.5102 5.488-13.742 6.0285-20.913h-12.364c0.14196 1.7208 0.28391 3.4417 0.42586 5.1625z" fill="#ff0" style="paint-order:stroke fill markers"/><path transform="matrix(.57001 0 0 .57001 -51.525 -106.34)" d="m276.13 280.68c-18.693-0.22364-34.226 18.953-30.7 37.185 2.7079 16.924 20.62 30.078 37.612 26.007 17.423-3.0299 29.908-22.435 24.604-39.495-3.8671-13.567-17.041-24.579-31.516-23.697z" fill="#0f0" style="paint-order:stroke fill markers"/><path transform="matrix(.57001 0 0 .57001 -51.525 -106.34)" d="m268.59 351.97c0.0441 9.6929 0.99276 19.981 6.8256 28.171 0.69923 2.1349 2.2146 2.4279 2.9245 0.0962 3.5574-5.4255 6.0992-11.481 6.2202-18.048 0.18201-3.3349 1.0849-7.0581 0.55753-10.222-5.5268 0.87786-11 0.84834-16.528 2e-3z" fill="#0f0" style="paint-order:stroke fill markers"/><path transform="matrix(.57001 0 0 .57001 -51.525 -106.34)" d="m361.25 290.42c-10.921-3e-3 -20.138 10.946-17.686 21.734 1.6746 9.6686 12.055 17.213 21.824 14.734 12.248-1.8992 18.803-17.704 11.842-27.867-3.2941-5.4935-9.5701-8.8963-15.981-8.6014z" fill="#f00" style="paint-order:stroke fill markers"/><path transform="matrix(.57001 0 0 .57001 -51.525 -106.34)" d="m357.19 336.75c0.34607 4.2638 1.595 9.2491 4.6726 12.21 3.6664-4.7671 4.4524-10.839 4.4674-16.681-2.7933 0.89698-9.6105-1.9798-9.3103 1.8183 0.0568 0.8842 0.11354 1.7684 0.17032 2.6526z" fill="#f00" style="paint-order:stroke fill markers"/></g></g></g><path transform="matrix(.33333 0 0 .33333 -.00016667 0)" d="m97.335 18.443c-26.296 0.012441-51.858 14.31-66.045 36.376-9.3654 14.288-13.884 31.655-12.62 48.698 0.96762 18.642 9.4764 36.547 22.275 49.986 17.713 18.504 44.757 27.66 70.042 23.152 25.932-4.0733 49.03-22.055 59.572-46.062 5.5175-12.056 7.7371-25.471 6.7561-38.673-1.4394-19.625-10.621-38.494-25.052-51.861-14.52-13.997-34.8-21.811-54.928-21.615zm32.3 13.234c11.423-0.47922 21.124 10.409 20.908 21.541 0.10002 8.6109-5.4997 17.249-13.654 20.18-2.2843 0.48151-3.3699-2.5497-1.9364-4.0626 4.6813-2.6567 8.9206-6.7148 10.14-12.151 2.8426-10.202-6.2348-21.339-16.754-20.879-10.071-0.0058-18.55 10.371-16.333 20.241 0.11878 2.0844 2.4976 4.8098 0.4643 6.5385-2.2584 1.4395-4.4822-0.84218-4.7743-3.059-2.497-8.385 0.0761-18.168 7.0277-23.679 3.84-3.2915 8.8309-5.0884 13.903-4.6785 0.33664 0.0025 0.67328 0.0051 1.0099 0.0076zm-34 17.379c2.4334 0.84531 3.111 3.917 4.6138 5.7824 3.3283 5.4185 6.2804 11.254 9.8623 16.407 3.6907-4.7855 5.7714-10.715 9.717-15.285 1.577-0.86093 3.3265 0.13864 3.7894 1.7994 5.2705 8.6098 10.088 17.589 15.368 26.13 2.2556-0.81003 4.4954-4.0652 7.091-2.505 2.8576 5.2686 4.4768 11.17 6.813 16.699 3.9095 10.493 8.2568 20.851 11.678 31.511 0.30143 2.3793-2.3326 1.9478-3.8393 2.0337-35.22 0.41113-70.446 0.15095-105.67 0.1984-8.4035-0.16464-16.86 0.27257-25.229-0.46871-2.0139-1.5573 0.35338-3.8649 1.0139-5.5089 12.205-21.891 24.673-43.646 37.7-65.059 0.49289-1.8321 2.8922-2.0581 3.736-0.36074 3.0223 3.8602 4.7407 8.7436 7.9828 12.358 4.6285-7.5114 8.5403-15.514 13.625-22.741 0.44072-0.49368 1.0131-1.1021 1.746-0.98977z" fill="#0af" fill-opacity=".78431" style="paint-order:stroke fill markers"/><path transform="matrix(.33333 0 0 .33333 -.00016667 0)" d="m77.233 204.35c0.80261 18.927 0.86443 38.615 9.0279 56.143 3.4335 7.4237 6.8349 15.135 11.929 21.54 9.3798-13.84 16.611-29.568 18.683-46.317 1.5852-13.794 1.9082-27.714 1.9286-41.59-12.804 2.9329-26.252 2.5647-39.168 0.5367-4.1813-2.1511-2.2994 2.9068-2.5393 5.4562 0.04631 1.4103 0.09263 2.8207 0.13894 4.231z" fill="#0af" fill-opacity=".78431" style="paint-order:stroke fill markers"/><g fill="#fff" fill-opacity=".78431"><path transform="matrix(.33333 0 0 .33333 -.00016667 0)" d="m120.99 64.072c-3.1446 3.9257-5.2405 8.5901-7.8303 12.889 1.106 2.1239 4.2206 5.8424 1.4273 7.8205-3.7327 1.1349-4.7649-4.0262-6.5112-6.2055-1.673-1.447-2.6124-8.2358-4.9585-4.7813-1.9087 1.3836-4.3033 5.7466-6.9884 3.3669-3.0048-1.7017-5.0076-5.1177-8.2412-6.2517-2.4231 1.7013-3.1219 5.1088-4.849 7.4637 2.9415 4.7 5.2629 10.012 8.6766 14.304 2.2177-1.9595 3.5105-5.4543 6.867-6.1121 6.6848-2.4892 14.854 2.7458 14.506 10.085 0.29557 4.5464-3.4095 7.4951-6.0108 10.589-1.0222 3.8217-1.1827 8.8868-4.7566 11.298-3.7608-2.6992-3.8278-7.9491-4.7556-12.089-3.5266-1.8556-5.4099-5.8166-6.2487-9.4227-1.7398 0.07444-3.8 0.25054-4.5334-1.8558-1.705-2.0414-2.2353-5.711-5.5429-5.3721-2.755 0.0066-6.1924-2.208-8.4926-0.7209-1.2826 1.5547-3.5625 2.9351-4.1838 4.763 5.4455 0.15372 9.4101 6.9593 6.3568 11.696-0.76313 2.4518-4.0557 3.0509-3.6964 6.0016-0.59615 2.0232-0.90515 5.4287-3.2129 6.08-3.9116-2.1284-1.4667-8.1163-5.4869-10.116-4.3313-4.3496-1.7209-13.139 4.6877-13.442 0.13234-0.39208-3.4053-2.5496-4.3895-3.91-1.2186-0.83876-3.496-4.6925-4.6281-1.716-7.3767 12.611-14.968 25.378-21.869 38.095 33.218 0.46968 66.445 0.18467 99.667 0.26639-1.3594-3.1389-4.7962-6.0439-4.2769-9.6557 1.2637-2.2923 4.4556-1.5387 5.043 0.90767 1.8705 2.8391 3.4969 5.8285 5.2358 8.748 5.4479-0.13446 11.021 0.31285 16.393-0.37746-5.1596-12.716-9.7022-25.835-15.069-38.371-3.7605 0.9219-6.2961 5.7095-10.387 5.2982-2.68-1.2167-1.1657-4.4351 0.79719-5.5331 1.7541-1.6346-1.2736-3.6406-1.6176-5.3286-3.621-6.1554-7.0241-12.661-11.121-18.412zm4.215 25.241c5.7173 0.15514 8.0891 8.3967 3.3185 11.587-2.0231 2.1396-1.089 6.2855-3.8237 7.7497-3.021-2.0148-1.2064-6.8877-4.6524-8.6255-3.7596-3.9964-0.47663-11.31 5.1576-10.711z" style="paint-order:stroke fill markers"/><path transform="matrix(.33333 0 0 .33333 -.00016667 0)" d="m70.407 68.173c-3.4346 4.0749-5.662 9.0439-8.4584 13.566 2.1107 1.0465 4.1162 6.5415 6.3051 4.2375 1.7018-2.0344 4.1446-3.6607 6.8775-2.5566 1.2393-0.19289 5.0351 1.7633 5.0908 0.45315-3.0127-5.3522-6.1121-10.858-9.8149-15.7z" style="paint-order:stroke fill markers"/><path transform="matrix(.33333 0 0 .33333 -.00016667 0)" d="m95.444 57.513c-2.0354 2.3705-3.3441 5.2929-4.9954 7.9375 2.4038 1.8303 4.4511 4.8632 7.2287 5.8801 1.4607-1.4966 5.425-3.2373 3.0549-5.5027-1.7212-2.757-3.0585-5.9534-5.2882-8.3148z" style="paint-order:stroke fill markers"/></g></svg>
