<?xml version="1.0" encoding="UTF-8"?>
<svg width="39" height="60" enable-background="new 0 0 100 100" fill="#000000" version="1.1" viewBox="0 0 65.333 100" xml:space="preserve" xmlns="http://www.w3.org/2000/svg" xmlns:cc="http://creativecommons.org/ns#" xmlns:dc="http://purl.org/dc/elements/1.1/" xmlns:rdf="http://www.w3.org/1999/02/22-rdf-syntax-ns#"><metadata><rdf:RDF><cc:Work rdf:about=""><dc:format>image/svg+xml</dc:format><dc:type rdf:resource="http://purl.org/dc/dcmitype/StillImage"/><dc:title/></cc:Work></rdf:RDF></metadata><path d="m65.333 32.703c0-18.032-14.652-32.703-32.665-32.703s-32.668 14.671-32.668 32.703c0 13.333 8.0245 24.808 19.482 29.894 0.5704 5.9083 0.258 28.355 13.186 37.403 12.172-8.5307 13.123-33.293 13.184-37.403 11.458-5.0852 19.481-16.56 19.481-29.894zm-32.667 61.722c-6.7192-10.83-6.7143-15.037-7.0852-29.819 2.2843 0.50835 4.6501 0.79636 7.0852 0.79636s4.7991-0.28801 7.0834-0.79636c-0.36916 14.77-0.15862 18.984-7.0834 29.819zm0.0017-35.095c-14.668 0-26.602-11.945-26.602-26.628s11.933-26.63 26.602-26.63c14.666 0 26.599 11.945 26.599 26.63s-11.933 26.628-26.599 26.628z" fill="#000" stroke-width="1.7341"/><g transform="matrix(.68494 0 0 .66184 10.664 7.291)" fill="#000"><g data-name="Layer 12"><path d="m62.832 20.445-2-3a1 1 0 0 0-0.832-0.445h-1.465l-1.7-2.555a1 1 0 0 0-0.835-0.445h-1.465l-1.7-2.555a1 1 0 0 0-0.835-0.445h-2a1 1 0 0 0-0.832 0.445l-1.703 2.555h-1.465a1 1 0 0 0-0.707 0.293l-1.707 1.707h-4.586v-8a3 3 0 0 0-6 0v8h-2v-8a3 3 0 0 0-6 0v8h-4.586l-1.707-1.707a1 1 0 0 0-0.707-0.293h-1.465l-1.7-2.555a1 1 0 0 0-0.835-0.445h-2a1 1 0 0 0-0.832 0.445l-1.703 2.555h-1.465a1 1 0 0 0-0.832 0.445l-1.703 2.555h-1.465a1 1 0 0 0-0.832 0.445l-2 3a1.006 1.006 0 0 0-0.168 0.555v6a1.006 1.006 0 0 0 0.168 0.555l3.808 5.711-1.976 24.654a1 1 0 0 0 1 1.08h15a1 1 0 0 0 1-1.08l-1.976-24.654 3.808-5.711a1 1 0 0 0 0.148-0.359l0.24-1.2h2.78v8a3 3 0 0 0 6 0v-7.996h2v8a3 3 0 0 0 6 0v-8h2.78l0.24 1.2a1 1 0 0 0 0.148 0.359l3.808 5.711-1.976 24.65a1 1 0 0 0 1 1.08h15a1 1 0 0 0 1-1.08l-1.976-24.654 3.808-5.711a1.006 1.006 0 0 0 0.168-0.555v-6a1.006 1.006 0 0 0-0.168-0.555zm-42.774 6.165-3.89 5.835a1 1 0 0 0-0.168 0.635l1.917 23.92h-12.834l1.917-23.92a1 1 0 0 0-0.165-0.635l-3.835-5.745v-5.4l1.535-2.3h1.465a1 1 0 0 0 0.832-0.445l1.703-2.555h1.465a1 1 0 0 0 0.832-0.445l1.703-2.555h0.93l1.7 2.555a1 1 0 0 0 0.835 0.445h1.586l1.27 1.271-1.805 5.413 1.9 0.632 0.586-1.757 1.353 0.9zm2.562-2.61 0.36-1.8a1 1 0 0 0-0.425-1.028l-2.365-1.58 0.531-1.592h4.279v6zm6.38 10a1 1 0 0 1-2 0v-26a1 1 0 0 1 2 0zm2-10v-6h2v6zm6 10a1 1 0 0 1-2 0v-26a1 1 0 0 1 2 0zm4.445-12.832a1 1 0 0 0-0.425 1.032l0.36 1.8h-2.38v-6h4.279l0.531 1.592zm19.555 5.532-3.832 5.748a1 1 0 0 0-0.168 0.632l1.917 23.92h-12.834l1.917-23.92a1 1 0 0 0-0.165-0.635l-3.89-5.835-0.83-4.149 1.353-0.9 0.586 1.757 1.9-0.632-1.8-5.413 1.26-1.273h1.586a1 1 0 0 0 0.832-0.445l1.703-2.555h0.93l1.7 2.555a1 1 0 0 0 0.835 0.445h1.465l1.7 2.555a1 1 0 0 0 0.835 0.445h1.465l1.535 2.3z"/></g><g fill-opacity=".49804"><path transform="scale(.21333)" d="m131.17 33.159c-1.969 0.084-4.2354 1.2843-4.0077 3.5782-0.85529 14.355-0.36213 28.758-0.51402 43.132 0.11706 25.659-0.26249 51.325 0.27213 76.98 0.29188 2.2488-0.37427 5.7724 2.5439 6.4828 2.8102 1.3823 6.6636-0.98613 6.0196-4.2686 0.4608-27.726 0.14551-55.462 0.23694-83.192-0.124-13.232 0.2386-26.484-0.36517-39.703-0.21244-1.8966-2.4356-3.0674-4.1857-3.0082z" fill="#ff0"/><path transform="scale(.21333)" d="m168.34 33.139c-2.6034 0.08507-4.1082 2.6068-3.7228 5.0051-0.44852 30.865-0.14819 61.738-0.23633 92.607 0.16708 10.174-0.32486 20.395 0.60471 30.536 0.53596 2.7437 4.728 3.1534 6.5711 1.4249 2.3454-1.9174 0.99852-5.3616 1.4674-7.9674 0.45232-37.774 0.46174-75.557-0.0134-113.33-0.32186-2.7069 0.87233-6.6018-2.4369-7.8806-0.6951-0.31803-1.4718-0.45762-2.2339-0.3934z" fill="#ff0"/><g fill="#f00"><path transform="scale(.21333)" d="m182.88 98.434v14.057c3.5197-0.21035 7.2415 0.43583 10.648-0.38993-0.14241-3.7768-2.4108-7.8213-0.76248-11.515 3.5512-3.6152 8.5401-5.7466 12.155-9.1095-0.67982-2.3894-1.5024-4.7351-2.2631-7.0994h-19.777v14.057z"/><path transform="scale(.21333)" d="m145.52 98.434v14.057h8.8968v-28.114h-8.8968z"/><path transform="scale(.21333)" d="m96.09 87.972c-0.18983 1.2487-1.2921 2.8438-0.70201 3.9931 3.9151 2.9243 8.317 5.2976 11.926 8.575 1.4384 3.6212-0.53493 7.5558-0.87439 11.237 0.0677 1.3347 2.8823 0.32791 3.9076 0.70386 2.2329 0.021 4.4661 5e-3 6.6991 0.01v-28.114h-19.777c-0.39294 1.1983-0.78588 2.3966-1.1788 3.5949z"/></g></g><path transform="scale(.21333)" d="m54.792 67.261c-1.9474 2.4437-3.2112 5.7156-5.8517 7.4608-2.8909 0.52327-5.8662 0.28537-8.7918 0.46083-3.1866 4.4822-5.8471 9.4428-9.6183 13.455-2.9665 1.2221-6.6245 0.15952-9.4505 1.0938-2.2267 3.568-4.9824 6.9753-6.88 10.643v24.579c6.2149 9.5473 12.924 18.843 18.685 28.645-2.5307 37.807-6.0374 75.549-8.7203 113.34h59.431c-1.318-20.925-3.2426-41.818-4.8335-62.728-1.2497-16.989-2.9378-33.959-3.6957-50.976 5.9065-9.9478 12.866-19.345 18.913-29.172 1.2471-6.2186 2.4946-12.437 3.7424-18.655-2.0014-0.99671-3.6842-3.0576-5.8566-3.5017-1.6951 2.075-1.3329 5.4884-3.2717 7.3816-2.9068-0.77723-6.0195-1.5998-8.648-2.9068 2.3408-8.6105 5.4499-16.995 8.1934-25.483-2.0916-1.8319-3.8957-4.3602-6.1596-5.7739-3.1745-0.26453-6.6913 0.59619-9.6558-0.72912-3.5242-4.0279-6.1466-8.7486-9.1908-13.134-1.8715 0.31101-4.6073-0.99855-5.3287 1.4662l-3.0114 4.5336z" fill="#fff" fill-opacity=".78431"/><path transform="scale(.21333)" d="m232.71 67.641c-1.889 2.3654-3.1585 5.5846-5.833 7.1376-2.9958 0.76065-6.3498-0.08255-9.2096 0.59843-1.8926 1.9024-3.7853 3.8048-5.6779 5.7072 2.6234 8.3614 5.6929 16.706 7.9772 25.101-2.7369 1.6387-5.9697 2.2552-8.9343 3.394-0.90276-2.7077-1.8054-5.4154-2.708-8.1232-1.9528 1.3965-4.1291 2.5522-5.8705 4.2072 1.2911 6.4652 2.4002 13.04 3.9808 19.402 6.1956 9.5096 12.875 18.772 18.623 28.534-2.5312 37.807-6.0095 75.551-8.7244 113.34h59.634c-2.924-37.706-6.2827-75.382-8.7543-113.12 1.112-3.0116 3.4202-5.6057 5.0416-8.4166 4.4437-6.7901 8.9829-13.517 13.474-20.276-0.01-8.4228-0.0194-16.846-0.0285-25.268-2.3303-3.4401-4.6606-6.8802-6.9909-10.32-3.1633-0.37897-6.6372 0.27572-9.5842-1.0899-3.5399-4.1296-6.2941-8.8607-9.3847-13.323-3.1077-0.33642-6.6923 0.7764-9.4779-0.96544-3.5205-3.9379-6.1104-8.599-9.1303-12.914-2.2081 0.0093-4.7538-0.61298-5.5321 2.0713-0.96308 1.4413-1.9262 2.8827-2.8892 4.324z" fill="#fff" fill-opacity=".78431"/></g><path transform="matrix(.33333 0 0 .33333 -.00016667 0)" d="m117.05 194.62c-13.13 2.6633-26.651 1.8298-39.816 0.13762 0.07922 14.996 0.86365 30.123 2.8317 45.012 2.7368 15.091 9.4687 29.488 17.945 42.042 11.015-15.612 18.474-34.258 19.354-53.518 0.95694-11.323 1.2945-22.685 1.4649-34.044-0.59312 0.12325-1.1862 0.24651-1.7794 0.36977z" fill="#a0f" fill-opacity=".78431" style="paint-order:stroke fill markers"/><path transform="matrix(.33333 0 0 .33333 -.00016667 0)" d="m96.809 18.639c-33.896 0.40647-65.865 24.677-75.07 57.361-3.6937 11.58-2.5479 23.998-1.892 35.937 5.0802 30.432 29.636 56.281 59.612 63.387 31.034 8.2108 65.996-5.9638 83.815-32.384 18.709-26.304 18.75-64.207-0.42685-90.28-14.842-21.128-40.101-34.573-66.039-34.021zm-7.0577 12.896c3.9751-0.09834 6.7478 3.255 5.8464 7.1142 0.17628 4.9006 0.07701 9.8054 0.10337 14.708 2.8834 1.0501 3.9231-1.4582 3.517-3.8757 0.76976-5.3256-1.0451-11.607 2.0435-16.277 4.2377-4.1369 12.111-0.21076 11.237 5.7397 0.43538 4.7919 0.23945 9.6089 0.28428 14.413 4.2382 0.28877 8.8006 0.26647 11.834-3.1737 2.5912-1.3853 6.0331-1.2051 7.2542-4.5505 2.4088-3.8007 9.432-3.0366 10.895 1.3741 1.6475 3.1617 6.3214 1.1575 7.5285 4.9867 1.1421 2.8365 3.827 3.4991 6.4089 4.0213 5.024 3.9895 5.6949 10.489 5.1893 16.444 0.90034 5.8576-4.9465 9.5987-7.3718 14.413-1.9265 3.6752 0.34793 8.4792 0.0722 12.598 0.75128 12.981 2.8573 25.986 2.4939 38.976-3.6037 1.5559-8.4233 0.5414-12.442 0.98553-7.2234-0.35985-14.878 0.92723-21.851-0.96329-0.7529-11.02 1.3427-22.191 1.9346-33.245 0.17642-5.6978 1.6279-11.728 1.0314-17.224-3.0856-4.378-6.2102-9.0953-8.5654-13.743-4.9932-2.1338-4.6746 2.4589-4.4666 6.1448-0.58717 4.9154 1.4732 12.893-4.7916 14.793-4.2081 1.2337-8.8746-1.4319-8.4214-6.1958-0.44745-4.9863-0.18152-10.002-0.25579-15.001-5.9145-1.6853-2.8074 5.651-3.5587 9.1289-0.11775 4.2406 1.191 11.287-4.6527 12.122-4.1411 1.126-8.3055-1.802-7.9029-6.2708-0.4464-4.9795-0.18218-9.9881-0.25578-14.98-2.3103-0.16292-5.3733-0.43561-5.712 2.5398-2.1543 4.3301-6.0651 8.0037-7.7221 12.357 1.0456 16.517 3.5568 33.044 3.3974 49.581-7.3949 1.86-15.512 0.61296-23.178 0.99001-3.6465-0.51898-8.2782 0.93131-11.413-1.1707 0.41012-16.74 2.3556-33.424 3.5601-50.126-2.4598-4.4493-6.9092-8.2841-8.0396-13.144 0.1481-6.3337-1.3134-13.837 4.3669-18.38 2.0742-1.7295 5.5369-0.89014 6.6618-4.0762 1.1763-2.9063 3.9721-3.4014 6.5361-4.0699 2.2273-2.4502 3.9333-6.3093 8.0543-5.098 4.7243-0.74612 4.9129 6.5256 9.6892 5.9126 3.0534 1.6236 5.2492 5.1403 9.3055 4.0439 6.4337 2.0891 4.1583-4.5309 4.4929-8.5409 0.17801-4.6227-0.94053-12.67 5.5341-13.245 0.43953-0.05983 0.88529-0.06772 1.3276-0.03614z" fill="#a0f" fill-opacity=".78431" style="paint-order:stroke fill markers"/></svg>
