<?xml version="1.0" encoding="UTF-8"?>
<svg width="30" height="46" version="1.1" viewBox="0 0 52.917 71.438" xmlns="http://www.w3.org/2000/svg"><g transform="translate(0 -225.56)"><g transform="matrix(.27194 0 0 .26456 26.458 28.574)" fill-rule="evenodd" stroke="#000" stroke-linejoin="round" stroke-width="14.59"><g fill="none" stroke="#000" stroke-linejoin="round" stroke-width="14.59"><path d="m90 841.89c0-49.678-40.323-90-90-90s-90 40.322-90 90c0 49.677 40.323 90 90 90s90-40.323 90-90z" stroke-linecap="round"/><path d="m-10 931.33v50l10 25.997 10-25.997v-50"/></g></g></g><g transform="matrix(.067956 0 0 .067956 8.6201 5.5096)"><g transform="matrix(3,0,0,3,-177.77,105.04)"><g transform="matrix(.58479 0 0 .58479 89.388 27.176)"><path d="m167.86 69.693c0-7.3208-5.9364-13.277-13.234-13.277-7.2981 0-13.236 5.9562-13.236 13.277 0 5.4133 3.2512 10.072 7.8933 12.136 0.0246 9.9381 4.0054 13.738 4.1751 14.255 0.16572 0.50502 0.6369 0.84669 1.167 0.84669s1.0014-0.34163 1.167-0.84669c0.16993-0.51772 4.1492-4.3165 4.1747-14.255 4.6423-2.0646 7.8929-6.7236 7.8929-12.136zm-13.235 23.707c-2.7064-4.7209-2.7203-4.7537-2.8706-10.755 0.92549 0.20639 1.884 0.32332 2.8706 0.32332s1.9444-0.11693 2.8699-0.32332c-0.14957 5.9963-0.12827 6.0174-2.8699 10.755zm7.3e-4 -12.897c-5.9428 0-10.778-4.8497-10.778-10.811 0-5.9611 4.8347-10.812 10.778-10.812 5.942 0 10.777 4.8497 10.777 10.812 0 5.9619-4.8347 10.811-10.777 10.811zm-105.56 2.4921c0-9.1216-7.3967-16.543-16.489-16.543-9.0933 0-16.492 7.4213-16.492 16.543 0 6.7449 4.0509 12.55 9.8349 15.121 0.03065 12.383 4.9907 17.117 5.2021 17.762 0.20648 0.62925 0.79357 1.055 1.4541 1.055s1.2477-0.42567 1.4541-1.055c0.21173-0.64507 5.1698-5.3783 5.2016-17.762 5.7842-2.5725 9.8344-8.3775 9.8344-15.121zm-16.491 29.539c-3.3721-5.8822-3.3895-5.923-3.5767-13.401 1.1531 0.25716 2.3474 0.40285 3.5767 0.40285s2.4227-0.14569 3.5759-0.40285c-0.18636 7.4713-0.15982 7.4976-3.5759 13.401zm9.09e-4 -16.069c-7.4046 0-13.429-6.0427-13.429-13.47 0-7.4274 6.024-13.472 13.429-13.472 7.4036 0 13.428 6.0427 13.428 13.472 0 7.4284-6.024 13.47-13.428 13.47zm96.362-24.634c0-12.519-10.151-22.704-22.63-22.704-12.48 0-22.634 10.185-22.634 22.704 0 9.2568 5.5596 17.223 13.498 20.753 0.04207 16.994 6.8493 23.492 7.1395 24.376 0.28339 0.86359 1.0891 1.4478 1.9956 1.4478s1.7124-0.58419 1.9956-1.4478c0.29058-0.88531 7.0952-7.3813 7.1388-24.376 7.9384-3.5305 13.497-11.497 13.497-20.753zm-22.632 40.539c-4.628-8.0728-4.6518-8.1289-4.9088-18.391 1.5826 0.35293 3.2217 0.55288 4.9088 0.55288s3.325-0.19995 4.9076-0.55288c-0.25577 10.254-0.21934 10.29-4.9076 18.391zm1e-3 -22.054c-10.162 0-18.431-8.2931-18.431-18.487 0-10.194 8.2674-18.489 18.431-18.489 10.161 0 18.429 8.2931 18.429 18.489 0 10.195-8.2674 18.487-18.429 18.487zm56.634-158.76c-25.846 0-46.873 21.027-46.873 46.873 0 6.6816 1.3788 13.137 4.0966 19.189 1.1161 2.4841 4.0345 3.5927 6.5192 2.4767 2.4841-1.1161 3.5933-4.0351 2.4772-6.5191-2.1438-4.7721-3.2308-9.8685-3.2308-15.147 0-20.408 16.603-37.01 37.01-37.01 20.408 0 37.01 16.603 37.01 37.01 0 14.515-8.5484 27.759-21.778 33.741-2.4812 1.1223-3.5842 4.0436-2.4618 6.5248 0.82366 1.8217 2.618 2.9008 4.4962 2.9008 0.67945 0 1.3697-0.14136 2.0292-0.43947 16.752-7.5748 27.577-24.347 27.577-42.728 0-25.846-21.027-46.872-46.873-46.872zm-165.2 206.17h-35.8l51.25-88.773 14.043 14.043c0.96274 0.96274 2.2247 1.4444 3.4867 1.4444s2.524-0.48108 3.4867-1.4444l9.6781-9.6781 23.346 4.5412 7.0715 12.25c0.91315 1.5818 2.5707 2.4658 4.2745 2.4658 0.83677 0 1.6849-0.21375 2.4619-0.66235 2.3587-1.3623 3.1658-4.3782 1.8041-6.7369l-18.937-32.804 10.82-18.741 18.5 16.344c0.93481 0.82651 2.1005 1.2352 3.2638 1.2352 1.266 0 2.528-0.4845 3.4879-1.4444l11.17-11.17 14.702 25.459c0.91371 1.5818 2.5707 2.4664 4.275 2.4664 0.8362 0 1.6849-0.21375 2.4619-0.66121 2.3587-1.3617 3.1664-4.3776 1.8046-6.7369l-5.6556-9.7938 17.765-30.769 30.65 53.091-5.6761 4.1941c-2.1905 1.6182-2.6545 4.7065-1.0357 6.8965 0.9673 1.3093 2.4584 2.0007 3.9701 2.0007 1.018 0 2.0446-0.31407 2.9264-0.96559l17.475-12.916 33.392 86.863h-36.886l-12.588-21.808c-1.3618-2.3592-4.3782-3.1675-6.7363-1.8063-2.3593 1.3617-3.167 4.3771-1.8064 6.7363l9.742 16.878h-162.46m0 9.8622h217.91c1.6245 0 3.1447-0.80028 4.0647-2.1387 0.91999-1.3389 1.1212-3.0444 0.53865-4.5606l-38.292-99.608c-0.55234-1.437-1.7442-2.5342-3.2228-2.9646-1.4792-0.43149-3.0729-0.14649-4.311 0.76837l-9.0249 6.6719-34.36-59.52c-0.88123-1.5259-2.5092-2.4658-4.271-2.4658-1.7619 0-3.3898 0.93994-4.271 2.4658l-19.19 33.237-27.269-47.223c-0.88123-1.5253-2.5092-2.4658-4.2705-2.4658-1.7619 0-3.3893 0.94051-4.2705 2.4658l-29.017 50.263-6.4279-11.134s-5.7e-4 -5.7e-4 -5.7e-4 -0.0011v-5.7e-4l-9.8753-17.095c-0.88123-1.5253-2.5092-2.4647-4.2705-2.4647s-3.3893 0.93994-4.2699 2.4658l-84.241 145.91c-0.88123 1.5259-0.88123 3.4058 0 4.9311s2.5086 2.4658 4.2705 2.4658h44.341m45.455-104.45c-1.6091-0.31293-3.269 0.1938-4.4284 1.3538l-8.0456 8.0456-12.426-12.426 19.344-33.505 5.6032 9.6986v5.7e-4l10.735 18.596c0.01368 0.02223 0.02565 0.04617 0.03933 0.0684l6.6799 11.572zm53.086-23.622-16.524-14.599 11.743-20.342 14.54 25.181z"/><g fill-opacity=".78431"><path transform="matrix(.57001 0 0 .57001 -51.525 -106.34)" d="m146.72 309.08c-12.603 0.14842-23.638 12.28-21.956 24.904 0.0842 10.409 9.2912 19.808 19.459 21.091 11.611 1.9098 23.529-6.5733 25.879-17.989 0.73419-6.6936 0.39781-13.995-4.3832-19.248-4.4697-5.7484-11.729-9.0779-18.999-8.758z" fill="#ff0" style="paint-order:stroke fill markers"/><path transform="matrix(.57001 0 0 .57001 -51.525 -106.34)" d="m141.79 366.3c0.4412 5.5167 1.5891 12.085 5.9098 15.751 5.2346-5.5102 5.488-13.742 6.0285-20.913h-12.364c0.14196 1.7208 0.28391 3.4417 0.42586 5.1625z" fill="#ff0" style="paint-order:stroke fill markers"/><path transform="matrix(.57001 0 0 .57001 -51.525 -106.34)" d="m276.13 280.68c-18.693-0.22364-34.226 18.953-30.7 37.185 2.7079 16.924 20.62 30.078 37.612 26.007 17.423-3.0299 29.908-22.435 24.604-39.495-3.8671-13.567-17.041-24.579-31.516-23.697z" fill="#0f0" style="paint-order:stroke fill markers"/><path transform="matrix(.57001 0 0 .57001 -51.525 -106.34)" d="m268.59 351.97c0.0441 9.6929 0.99276 19.981 6.8256 28.171 0.69923 2.1349 2.2146 2.4279 2.9245 0.0962 3.5574-5.4255 6.0992-11.481 6.2202-18.048 0.18201-3.3349 1.0849-7.0581 0.55753-10.222-5.5268 0.87786-11 0.84834-16.528 2e-3z" fill="#0f0" style="paint-order:stroke fill markers"/><path transform="matrix(.57001 0 0 .57001 -51.525 -106.34)" d="m361.25 290.42c-10.921-3e-3 -20.138 10.946-17.686 21.734 1.6746 9.6686 12.055 17.213 21.824 14.734 12.248-1.8992 18.803-17.704 11.842-27.867-3.2941-5.4935-9.5701-8.8963-15.981-8.6014z" fill="#f00" style="paint-order:stroke fill markers"/><path transform="matrix(.57001 0 0 .57001 -51.525 -106.34)" d="m357.19 336.75c0.34607 4.2638 1.595 9.2491 4.6726 12.21 3.6664-4.7671 4.4524-10.839 4.4674-16.681-2.7933 0.89698-9.6105-1.9798-9.3103 1.8183 0.0568 0.8842 0.11354 1.7684 0.17032 2.6526z" fill="#f00" style="paint-order:stroke fill markers"/></g></g></g><g fill="#fff" fill-opacity=".78431"><path d="m347.17 187.23c-10.825 16.414-20.102 33.81-30.114 50.729 3.7068 8.1499 12.615 16.453 9.7669 26.066-4.2099 6.8922-15.689 4.8516-17.78-2.9555-8.2923-12.618-14.568-26.911-23.6-38.818-9.7425 4.5473-14.959 16.923-25.839 19.657-7.7009-1.5548-12.651-9.3344-18.967-13.623-6.3736-5.4694-12.528-11.272-19.226-16.315-6.0978 10.42-12.09 20.902-18.129 31.356 11.317 19.091 21.798 38.973 33.939 57.403 5.871-11.279 14.072-22.429 26.784-26.494 12.88-2.5648 27.473-1.9854 37.977 6.8941 21.138 15.641 19.182 52.569-3.7634 65.69-7.9222 3.6702-3.5001 13.557-6.5417 20.082-3.0354 9.7922-5.4763 21.622-14.085 28.066-5.3072-0.35629-7.3811-7.7274-10.119-11.581-5.2542-10.429-6.0973-22.34-7.3538-33.591-12.349-7.0427-22.925-19.443-23.07-34.371 1.0971-7.3151-5.2749-0.64685-8.8178-1.2733-8.821 0.50961-10.497-10.393-14.835-15.962-2.9258-4.7068-4.8077-11.433-11.705-10.757-11.371-2.3532-22.801-4.4104-34.206-6.5923-7.3657 5.9996-12.696 15.558-21.856 18.788-9.1554 0.51812-13.856-9.7228-20.324-14.568-4.2723-1.9273-10.03-15.082-13.208-8.7342-28.826 50.217-58.293 100.32-86.551 150.71 126.48 1.1424 252.98 0.44262 379.47 0.64407-5.693-11.529-14.996-21.913-17.237-34.797 0.47932-8.4983 13.444-10.317 16.701-2.5424 7.941 12.015 14.539 24.856 21.818 37.273 21.034-0.20532 42.786 0.52286 63.392-0.40254-18.865-49.833-38.102-99.677-58.233-148.93-12.562 6.2858-22.19 18.173-35.703 22.39-7.6317-0.25865-11.893-10.693-5.3644-15.638 2.2855-3.406 8.4731-5.0747 8.8792-9.3199-16.642-29.842-33.792-59.826-52.1-88.477zm14.394 98.311c18.011-1.5413 29.792 21.208 20.379 35.833-2.864 6.0517-11.964 7.721-10.826 15.725-1.5076 6.9068-3.0205 16.19-9.5339 19.987-6.295-3.2398-7.3224-12.103-9.1292-18.388-0.58349-3.8589 0.47722-9.0261-4.3623-10.258-14.569-9.5258-12.736-34.14 3.2776-41.127 3.1774-1.4405 6.7444-1.7774 10.195-1.7712zm-212.68 17.413c19.092-0.38287 33.015 21.148 26.383 38.631-1.9682 7.9408-8.4963 13.084-14.542 17.744-2.4402 11.015-2.8637 24.708-12.383 32.371-6.1466-0.18385-7.746-8.7959-9.8411-13.432-3.1217-6.486-1.2626-14.832-5.6017-20.547-18.528-9.5626-19.422-38.559-2.2607-49.833 5.2983-3.6656 11.858-5.1943 18.246-4.934z" style="paint-order:stroke fill markers"/><path d="m250.93 161.95c-6.859 10.683-13.67 21.734-19.275 33.006 8.8058 8.5554 18.226 16.457 27.352 24.667 5.4469-5.4465 10.893-10.894 16.339-16.341-8.1351-13.74-15.536-28.16-24.415-41.333z" style="paint-order:stroke fill markers"/><path d="m156.2 201.36c-11.78 17.984-21.978 36.968-32.928 55.466 6.9656 7.0323 13.932 14.064 20.898 21.095 7.7137-5.8845 13.812-18.627 25.316-15.64 8.3145 1.2128 16.728 3.8665 24.979 4.2945-11.72-22.275-24.424-44.227-38.193-65.269z" style="paint-order:stroke fill markers"/></g></g><path transform="scale(.26458)" d="m98.92 15.192c-31.746-0.22634-62.47 19.279-75.837 48.053-13.292 27.322-8.8147 61.906 10.746 85.106 21.02 26.138 58.335 37.917 90.412 27.641 32.375-8.8632 57.894-38.924 60.078-72.613 2.7406-30.361-14.035-60.678-40.026-76.102-13.563-8.2838-29.519-12.319-45.372-12.084zm31.499 22.611c14.161-0.02615 24.185 16.529 18.634 29.306-2.2474 5.4709-7.2931 11.511-13.62 11.425-2.5849-2.1083 0.98943-5.2412 3.039-6.193 9.1568-6.0747 8.9335-21.432-0.59428-27.06-8.2034-5.4363-20.192-1.2251-23.712 7.8657-2.5855 4.5826-0.30507 9.5146 0.055 14.198-0.7608 3.0741-5.2835 1.6411-5.2509-1.2411-4.3986-11.985 4.0091-27.096 17.147-28.064 1.4248-0.1903 2.8653-0.27068 4.3025-0.23646zm-33.27 17.423c4.2562 2.0952 5.4806 7.6626 8.2119 11.284 1.9311 2.9851 3.5424 6.5141 5.9219 9.0362 4.0048-4.174 5.3379-10.598 9.8838-14.193 3.7185 0.28333 4.8047 5.3615 6.8732 7.8438 3.998 6.1594 6.7948 13.308 11.618 18.817 2.0694-0.45158 5.1523-3.9652 7.0775-1.2086 6.2574 15.331 12.302 30.84 17.327 46.599-0.34229 3.7174-5.3762 1.3357-7.733 2.0695-39.973 0.1776-79.962 0.58639-119.93-0.18722-2.521 0.64276-5.8231-1.8195-3.3353-4.2256 12.548-22.273 25.22-44.528 38.826-66.161 3.7335-0.66514 4.6764 4.8008 6.5576 6.9861 1.1697 1.7437 2.091 4.1967 3.6014 5.4625 5.1933-6.9022 8.1251-15.48 14.007-21.809 0.32428-0.20251 0.70408-0.33876 1.091-0.31403z" fill="#0ff" fill-opacity=".78431" style="paint-order:stroke fill markers"/><path transform="scale(.26458)" d="m97.445 214.83c0.38587 7.6031-0.77678 15.501 1.146 22.915 0.56562 2.7532 3.1114 1.2174 3.1828-0.86202 1.5661-13.448 0.44598-27.102 0.79571-40.63-0.89738-4.0271-7.6406-1.1582-5.1246 3.5031v15.073z" fill="#0ff" fill-opacity=".78431" style="paint-order:stroke fill markers"/></svg>
