<?xml version="1.0" encoding="UTF-8"?>
<svg width="39" height="60" enable-background="new 0 0 100 100" fill="#000000" version="1.1" viewBox="0 0 65.333 100" xml:space="preserve" xmlns="http://www.w3.org/2000/svg" xmlns:cc="http://creativecommons.org/ns#" xmlns:dc="http://purl.org/dc/elements/1.1/" xmlns:rdf="http://www.w3.org/1999/02/22-rdf-syntax-ns#"><metadata><rdf:RDF><cc:Work rdf:about=""><dc:format>image/svg+xml</dc:format><dc:type rdf:resource="http://purl.org/dc/dcmitype/StillImage"/><dc:title/></cc:Work></rdf:RDF></metadata><path d="m65.333 32.703c0-18.032-14.652-32.703-32.665-32.703s-32.668 14.671-32.668 32.703c0 13.333 8.0245 24.808 19.482 29.894 0.5704 5.9083 0.258 28.355 13.186 37.403 12.172-8.5307 13.123-33.293 13.184-37.403 11.458-5.0852 19.481-16.56 19.481-29.894zm-32.667 61.722c-6.7192-10.83-6.7143-15.037-7.0852-29.819 2.2843 0.50835 4.6501 0.79636 7.0852 0.79636s4.7991-0.28801 7.0834-0.79636c-0.36916 14.77-0.15862 18.984-7.0834 29.819zm0.0017-35.095c-14.668 0-26.602-11.945-26.602-26.628s11.933-26.63 26.602-26.63c14.666 0 26.599 11.945 26.599 26.63s-11.933 26.628-26.599 26.628z" fill="#000" stroke-width="1.7341"/><path transform="matrix(.33333 0 0 .33333 -.00016667 0)" d="m96.693 18.557c-27.85 0.19715-54.71 16.468-68.067 40.853-6.5914 11.852-10.421 25.363-9.893 38.986-0.46666 12.025 2.757 23.971 7.9542 34.739 11.974 24.561 37.32 42.217 64.628 44.271 15.603 1.0067 31.633-1.8166 45.235-9.7687 24.384-13.346 40.648-40.167 40.928-67.997 0.39415-14.833-3.69-29.611-11.364-42.287-5.8639-9.9685-14.153-18.52-23.624-25.12-13.375-9.1464-29.595-13.989-45.797-13.676z" fill="#fff" fill-opacity=".78431" style="paint-order:stroke fill markers"/><path transform="matrix(.33333 0 0 .33333 -.00016667 0)" d="m118.61 194.3c-13.276 2.6568-27.015 2.6968-40.315 0.16643-2.4426-0.87854-0.83996 2.7776-1.2494 3.9914 0.85922 20.243 0.38066 41.237 8.3574 60.28 3.3901 8.2323 7.6079 16.26 12.62 23.558 9.2939-13.761 16.722-29.247 18.727-45.91 1.8022-13.943 1.9125-28.053 2.1804-42.085-0.0984-0.0493-0.22652 0.0414-0.3204-2e-3z" fill="#fff" fill-opacity=".78431" style="paint-order:stroke fill markers"/></svg>
